<?xml version="1.0" encoding="UTF-8" standalone="no"?>
<!-- Uploaded to: SVG Repo, www.svgrepo.com, Generator: SVG Repo Mixer Tools -->

<svg
   width="800px"
   height="800px"
   viewBox="0 0 24 24"
   version="1.1"
   id="svg2"
   sodipodi:docname="batsave.svg"
   inkscape:version="1.3.2 (091e20ef0f, 2023-11-25, custom)"
   xmlns:inkscape="http://www.inkscape.org/namespaces/inkscape"
   xmlns:sodipodi="http://sodipodi.sourceforge.net/DTD/sodipodi-0.dtd"
   xmlns="http://www.w3.org/2000/svg"
   xmlns:svg="http://www.w3.org/2000/svg">
  <defs
     id="defs2" />
  <sodipodi:namedview
     id="namedview2"
     pagecolor="#505050"
     bordercolor="#eeeeee"
     borderopacity="1"
     inkscape:showpageshadow="0"
     inkscape:pageopacity="0"
     inkscape:pagecheckerboard="0"
     inkscape:deskcolor="#505050"
     inkscape:zoom="1.5075"
     inkscape:cx="400"
     inkscape:cy="400.66335"
     inkscape:window-width="2560"
     inkscape:window-height="1404"
     inkscape:window-x="0"
     inkscape:window-y="0"
     inkscape:window-maximized="1"
     inkscape:current-layer="svg2" />
  <path
     d="M 14.205001,0.97499981 A 1.1025,1.1025 0 0 1 15.3075,2.0774998 v 1.1025 h 3.307501 A 1.1025,1.1025 0 0 1 19.7175,4.2824997 V 21.922499 A 1.1025,1.1025 0 0 1 18.615001,23.025 H 5.3850005 a 1.1025,1.1025 0 0 1 -1.1025,-1.102501 V 4.2824997 a 1.1025,1.1025 0 0 1 1.1025,-1.1024999 h 3.3074999 v -1.1025 a 1.1025,1.1025 0 0 1 1.1025,-1.10249999 z m -1.1025,7.71749979 H 10.8975 V 11.999999 H 7.5900005 v 2.205 H 10.8975 v 3.3075 h 2.205001 v -3.3075 h 3.3075 v -2.205 h -3.3075 z"
     id="path2"
     style="stroke-width:1.1025" />
</svg>
