<?xml version="1.0" encoding="UTF-8" standalone="no"?>
<!-- Uploaded to: SVG Repo, www.svgrepo.com, Generator: SVG Repo Mixer Tools -->

<svg
   width="800px"
   height="800px"
   viewBox="0 0 24 24"
   version="1.1"
   id="svg2"
   sodipodi:docname="fastcharge.svg"
   inkscape:version="1.3.2 (091e20ef0f, 2023-11-25, custom)"
   xmlns:inkscape="http://www.inkscape.org/namespaces/inkscape"
   xmlns:sodipodi="http://sodipodi.sourceforge.net/DTD/sodipodi-0.dtd"
   xmlns="http://www.w3.org/2000/svg"
   xmlns:svg="http://www.w3.org/2000/svg">
  <defs
     id="defs2" />
  <sodipodi:namedview
     id="namedview2"
     pagecolor="#505050"
     bordercolor="#eeeeee"
     borderopacity="1"
     inkscape:showpageshadow="0"
     inkscape:pageopacity="0"
     inkscape:pagecheckerboard="0"
     inkscape:deskcolor="#505050"
     inkscape:zoom="1.5075"
     inkscape:cx="400"
     inkscape:cy="400.66335"
     inkscape:window-width="2560"
     inkscape:window-height="1404"
     inkscape:window-x="0"
     inkscape:window-y="0"
     inkscape:window-maximized="1"
     inkscape:current-layer="svg2" />
  <path
     d="m 8.6924999,3.1800001 v -1.1025 a 1.1025,1.1025 0 0 1 1.1025,-1.10250006 H 14.205 a 1.1025,1.1025 0 0 1 1.102501,1.10250006 v 1.1025 h 3.3075 a 1.1025,1.1025 0 0 1 1.102499,1.1025 V 21.9225 A 1.1025,1.1025 0 0 1 18.615001,23.025 H 5.3849999 a 1.1025,1.1025 0 0 1 -1.1025,-1.1025 V 4.2825001 a 1.1025,1.1025 0 0 1 1.1025,-1.1025 z M 13.1025,12 V 6.4875001 L 7.5899999,14.205 H 10.8975 v 5.5125 L 16.41,12 Z"
     id="path2"
     style="stroke-width:1.1025" />
</svg>
