<?xml version="1.0" encoding="UTF-8" standalone="no"?>
<!-- Uploaded to: SVG Repo, www.svgrepo.com, Generator: SVG Repo Mixer Tools -->

<svg
   fill="#000000"
   height="800px"
   width="800px"
   version="1.1"
   id="Layer_1"
   viewBox="-143 145 512 512"
   xml:space="preserve"
   sodipodi:docname="fnlock.svg"
   inkscape:version="1.3.2 (091e20ef0f, 2023-11-25, custom)"
   xmlns:inkscape="http://www.inkscape.org/namespaces/inkscape"
   xmlns:sodipodi="http://sodipodi.sourceforge.net/DTD/sodipodi-0.dtd"
   xmlns="http://www.w3.org/2000/svg"
   xmlns:svg="http://www.w3.org/2000/svg"><defs
   id="defs1" /><sodipodi:namedview
   id="namedview1"
   pagecolor="#505050"
   bordercolor="#eeeeee"
   borderopacity="1"
   inkscape:showpageshadow="0"
   inkscape:pageopacity="0"
   inkscape:pagecheckerboard="0"
   inkscape:deskcolor="#505050"
   inkscape:zoom="0.87943089"
   inkscape:cx="48.895258"
   inkscape:cy="221.73431"
   inkscape:window-width="2560"
   inkscape:window-height="1404"
   inkscape:window-x="0"
   inkscape:window-y="0"
   inkscape:window-maximized="1"
   inkscape:current-layer="Layer_1" />
<path
   id="path1"
   style="display:inline;stroke-width:0.9375"
   d="m -89.5,161 c -20.71871,0 -37.5,16.78129 -37.5,37.5 v 405 c 0,20.71871 16.78129,37.5 37.5,37.5 h 405 c 20.71871,0 37.5,-16.78129 37.5,-37.5 v -405 C 353,177.78129 336.21871,161 315.5,161 Z m 53.715234,136.78594 H 107.61055 v 36.5414 H 6.8457031 v 50.65899 H 100.69062 v 35.43398 H 6.8457031 v 83.60156 H -35.784766 Z m 247.067576,57.02695 c 15.50225,0 27.91301,5.02871 37.23281,15.08672 9.31981,9.96573 13.9793,24.17541 13.9793,42.63047 v 91.49179 h -40.69336 v -84.0164 c 0,-9.78118 -2.35333,-17.21041 -7.05937,-22.28555 -4.70605,-5.16741 -11.30365,-7.75078 -19.79297,-7.75078 -8.39706,0 -15.27186,2.63054 -20.62383,7.89023 -5.35197,5.2597 -8.02734,13.5642 -8.02734,24.91407 v 81.24843 H 125.46641 V 357.85742 h 40.13906 v 22.97696 c 4.98287,-8.30478 11.21241,-14.71836 18.68672,-19.23985 7.4743,-4.52149 16.47123,-6.78164 26.99062,-6.78164 z" />
</svg>
