<?xml version="1.0" encoding="UTF-8" standalone="no"?>
<!-- Uploaded to: SVG Repo, www.svgrepo.com, Generator: SVG Repo Mixer Tools -->

<svg
   version="1.1"
   id="_x32_"
   viewBox="0 0 512 512"
   xml:space="preserve"
   sodipodi:docname="hybrid.svg"
   inkscape:version="1.3.2 (091e20ef0f, 2023-11-25, custom)"
   xmlns:inkscape="http://www.inkscape.org/namespaces/inkscape"
   xmlns:sodipodi="http://sodipodi.sourceforge.net/DTD/sodipodi-0.dtd"
   xmlns="http://www.w3.org/2000/svg"
   xmlns:svg="http://www.w3.org/2000/svg"><defs
   id="defs16" /><sodipodi:namedview
   id="namedview16"
   pagecolor="#505050"
   bordercolor="#eeeeee"
   borderopacity="1"
   inkscape:showpageshadow="0"
   inkscape:pageopacity="0"
   inkscape:pagecheckerboard="0"
   inkscape:deskcolor="#505050"
   inkscape:zoom="0.37874626"
   inkscape:cx="-761.72369"
   inkscape:cy="-155.77712"
   inkscape:window-width="2560"
   inkscape:window-height="1404"
   inkscape:window-x="0"
   inkscape:window-y="0"
   inkscape:window-maximized="1"
   inkscape:current-layer="_x32_" />
<style
   type="text/css"
   id="style1">
	.st0{fill:#000000;}
</style>
<path
   id="path1"
   class="st0"
   d="M 146.81836 0 C 138.54838 0 131.83789 6.7112036 131.83789 14.992188 L 131.83789 56.460938 L 167.31641 56.460938 L 167.31641 14.992188 L 167.31445 14.992188 C 167.31445 6.7112036 160.60201 -2.3684734e-15 152.33203 0 L 146.81836 0 z M 217.77539 0 C 209.50541 0 202.79297 6.7112036 202.79297 14.992188 L 202.79297 56.460938 L 238.26172 56.460938 L 238.26172 14.992188 C 238.26172 6.7112036 231.55028 -2.3684734e-15 223.2793 0 L 217.77539 0 z M 288.72266 0 C 280.45266 0 273.74023 6.7112036 273.74023 14.992188 L 273.74023 56.460938 L 309.20703 56.460938 L 309.20703 14.992188 C 309.20703 6.7112036 302.49654 -2.3684734e-15 294.22656 0 L 288.72266 0 z M 359.66797 0 C 351.39799 0 344.68555 6.7112036 344.68555 14.992188 L 344.68555 56.460938 L 380.16406 56.460938 L 380.16406 14.992188 C 380.16406 6.7112036 373.45262 -2.3684734e-15 365.18164 0 L 359.66797 0 z M 78.628906 78.628906 L 78.628906 433.38281 L 433.38086 433.38281 L 433.38086 78.628906 L 78.628906 78.628906 z M 401.36523 116.9375 C 401.36523 116.9375 357.55429 365.18945 196.91992 365.18945 A 65.568098 65.568098 0 0 1 178.08203 360.80859 L 163.48047 394.39648 L 135.87891 384.75781 C 166.25341 309.25966 196.92148 219.15938 328.34961 189.95312 C 328.34961 189.95312 182.31757 189.95236 134.85742 325.03125 A 90.831523 90.831523 0 0 1 109.30273 270.26953 C 109.30273 241.06329 138.50781 178.9996 211.52344 164.39648 C 284.53906 149.79335 386.76211 146.14375 401.36523 116.9375 z M 455.55078 131.83594 L 455.55078 167.31445 L 497.01758 167.31445 C 505.28756 167.31445 511.99805 160.60129 511.99805 152.32031 L 511.99805 146.82812 C 511.99905 138.54814 505.28756 131.83594 497.01758 131.83594 L 455.55078 131.83594 z M 14.982422 131.83789 C 6.7124382 131.83689 0 138.54714 0 146.82812 L 0 152.32227 C 0 160.60325 6.7124382 167.31445 14.982422 167.31445 L 56.460938 167.31445 L 56.460938 131.83789 L 14.982422 131.83789 z M 14.982422 202.79297 C 6.7124382 202.79297 0 209.50416 0 217.78516 L 0 223.2793 C 0 231.54928 6.7124382 238.26172 14.982422 238.26172 L 56.460938 238.26172 L 56.460938 202.79297 L 14.982422 202.79297 z M 455.55078 202.79297 L 455.55078 238.26172 L 497.01758 238.26172 C 505.28756 238.26172 511.99805 231.54928 511.99805 223.2793 L 511.99805 217.78516 C 511.99905 209.50416 505.28756 202.79297 497.01758 202.79297 L 455.55078 202.79297 z M 14.982422 273.73828 C 6.7124382 273.73828 0 280.45072 0 288.7207 L 0 294.21484 C 0 302.49584 6.7124382 309.20703 14.982422 309.20703 L 56.460938 309.20703 L 56.460938 273.73828 L 14.982422 273.73828 z M 455.55078 273.73828 L 455.55078 309.20703 L 497.01758 309.20703 C 505.28756 309.20703 511.99805 302.49584 511.99805 294.21484 L 511.99805 288.7207 C 511.99905 280.45072 505.28756 273.73828 497.01758 273.73828 L 455.55078 273.73828 z M 14.982422 344.68555 C 6.7124382 344.68455 0 351.39771 0 359.67969 L 0 365.17188 C 0 373.45286 6.7124382 380.16406 14.982422 380.16406 L 56.460938 380.16406 L 56.460938 344.68555 L 14.982422 344.68555 z M 455.55078 344.68555 L 455.55078 380.16406 L 497.01758 380.16406 C 505.28756 380.16406 511.99805 373.45286 511.99805 365.17188 L 511.99805 359.67773 C 511.99905 351.39675 505.28756 344.68555 497.01758 344.68555 L 455.55078 344.68555 z M 131.83594 455.55078 L 131.83594 497.00781 C 131.83594 505.28979 138.54838 512 146.81836 512 L 152.33203 512 C 160.60201 512 167.31445 505.28979 167.31445 497.00781 L 167.31445 455.55078 L 131.83594 455.55078 z M 202.79297 455.55078 L 202.79297 497.00781 C 202.79297 505.28979 209.50541 512 217.77539 512 L 223.2793 512 C 231.55128 512 238.26172 505.28979 238.26172 497.00781 L 238.26172 455.55078 L 202.79297 455.55078 z M 273.73828 455.55078 L 273.73828 497.00781 C 273.73828 505.28979 280.45072 512 288.7207 512 L 294.22461 512 C 302.49459 512 309.20703 505.28979 309.20703 497.00781 L 309.20703 455.55078 L 273.73828 455.55078 z M 344.68555 455.55078 L 344.68555 497.00781 C 344.68555 505.28979 351.39699 512 359.66797 512 L 365.18164 512 C 373.45262 512 380.16406 505.28979 380.16406 497.00781 L 380.16406 455.55078 L 344.68555 455.55078 z " />
</svg>
