<?xml version="1.0" encoding="UTF-8" standalone="no"?>
<!-- Uploaded to: SVG Repo, www.svgrepo.com, Generator: SVG Repo Mixer Tools -->

<svg
   fill="#000000"
   version="1.1"
   id="Capa_1"
   width="800px"
   height="800px"
   viewBox="0 0 53.327 53.326"
   xml:space="preserve"
   sodipodi:docname="usbcharging.svg"
   inkscape:version="1.3.2 (091e20ef0f, 2023-11-25, custom)"
   xmlns:inkscape="http://www.inkscape.org/namespaces/inkscape"
   xmlns:sodipodi="http://sodipodi.sourceforge.net/DTD/sodipodi-0.dtd"
   xmlns="http://www.w3.org/2000/svg"
   xmlns:svg="http://www.w3.org/2000/svg"><defs
   id="defs4" /><sodipodi:namedview
   id="namedview4"
   pagecolor="#505050"
   bordercolor="#eeeeee"
   borderopacity="1"
   inkscape:showpageshadow="0"
   inkscape:pageopacity="0"
   inkscape:pagecheckerboard="0"
   inkscape:deskcolor="#505050"
   inkscape:zoom="0.15048902"
   inkscape:cx="-541.56774"
   inkscape:cy="-146.19007"
   inkscape:window-width="2560"
   inkscape:window-height="1404"
   inkscape:window-x="0"
   inkscape:window-y="0"
   inkscape:window-maximized="1"
   inkscape:current-layer="Capa_1" />
<path
   id="path1"
   style="display:inline"
   d="M 39.226982 2.0771484e-05 C 37.800984 2.0771484e-05 36.457049 0.55698266 35.446051 1.5659806 L 27.162009 9.8510644 C 25.718011 8.6790666 23.599041 8.7479652 22.252045 10.092963 L 2.311965 30.030959 C 0.87396788 31.468957 0.87396788 33.801027 2.311965 35.238023 L 7.6559918 40.581008 C 5.7459956 42.699004 3.8319703 45.890062 3.7129705 50.244054 C 3.6679705 51.89805 4.9759867 53.279026 6.6309833 53.324026 C 6.6579833 53.324026 6.6890048 53.325979 6.7130048 53.325979 C 8.3320016 53.325979 9.6659561 52.035964 9.7109561 50.407966 C 9.776956 47.964972 10.814974 46.113028 11.901972 44.82803 L 16.855029 49.780958 C 18.293028 51.218954 20.624968 51.218954 22.061963 49.780958 L 41.99996 29.842961 C 43.345956 28.496963 43.413939 26.378995 42.243941 24.932997 L 50.526031 16.648044 C 51.536029 15.637046 52.09199 14.294027 52.09199 12.865029 C 52.09199 11.435033 51.535029 10.093055 50.526031 9.0830566 L 43.008043 1.5649391 C 41.999045 0.55494108 40.653978 2.0771484e-05 39.226982 2.0771484e-05 z M 39.225029 3.999025 C 39.584029 3.999025 39.925994 4.1390306 40.179994 4.3940302 L 47.697981 11.912018 C 47.952981 12.167016 48.094028 12.504941 48.094028 12.865941 C 48.092028 13.224939 47.951981 13.563041 47.697981 13.818041 L 39.439977 22.076956 L 30.014014 12.652034 L 38.27397 4.3940302 C 38.52797 4.1400306 38.866029 3.999025 39.225029 3.999025 z M 39.197558 5.8687248 C 38.87531 5.8687248 38.553039 5.9915409 38.307039 6.2370405 L 37.064999 7.4799918 C 36.573001 7.9709908 36.573001 8.7689897 37.064999 9.2599887 L 38.502979 10.697969 C 38.994979 11.188967 39.791978 11.188967 40.282976 10.697969 L 41.525016 9.4560592 C 42.018016 8.9650602 42.018098 8.1680613 41.526058 7.6760623 L 40.087947 6.2370405 C 39.841949 5.9915409 39.519807 5.8687248 39.197558 5.8687248 z M 43.526471 10.197508 C 43.204223 10.197508 42.881952 10.320042 42.635952 10.565042 L 41.394042 11.807993 C 40.904044 12.298993 40.904044 13.096992 41.394042 13.58799 L 42.833064 15.025971 C 43.322064 15.517969 44.119978 15.517969 44.610978 15.025971 L 45.853018 13.784972 C 46.345016 13.292974 46.345016 12.496062 45.853018 12.004064 L 44.41699 10.565042 C 44.170992 10.320042 43.84872 10.197508 43.526471 10.197508 z M 32.276115 19.06885 L 23.788972 27.750761 L 29.131957 32.973709 L 11.383934 40.44053 L 19.871078 31.758619 L 14.528092 26.535541 L 32.276115 19.06885 z " />
</svg>
